<?xml version="1.0" encoding="UTF-8" standalone="no"?>
<svg width="142px" height="80px" viewBox="0 0 142 80" version="1.1" xmlns="http://www.w3.org/2000/svg" xmlns:xlink="http://www.w3.org/1999/xlink" xmlns:sketch="http://www.bohemiancoding.com/sketch/ns">
    <!-- Generator: Sketch 3.3.3 (12072) - http://www.bohemiancoding.com/sketch -->
    <title>Fill 1</title>
    <desc>Created with Sketch.</desc>
    <defs></defs>
    <g id="Page-1" stroke="none" stroke-width="1" fill="none" fill-rule="evenodd" sketch:type="MSPage">
        <g id="Artboard-1-Copy-8" sketch:type="MSArtboardGroup" transform="translate(-231.000000, -331.000000)" fill="#12294D">
            <g id="Imported-Layers" sketch:type="MSLayerGroup" transform="translate(231.000000, 331.000000)">
                <path d="M8.01869394,80 L41.3654612,80 C42.7658336,80 43.7337969,78.6018 43.2393004,77.2936 L22.2204965,21.6934 C21.5685783,19.9684 19.1251368,19.9684 18.4732186,21.6934 L0.523737659,69.1746 C-1.4546488,74.4074 2.41760508,80 8.01869394,80 Z M27.8610409,2.7064 L56.5915063,78.7064 C56.8857207,79.4848 57.6319718,80 58.464945,80 L91.8365472,80 C93.2369196,80 94.2048829,78.6018 93.7103865,77.2936 L64.979921,1.2936 C64.6857066,0.515 63.9394556,0 63.1062821,0 L29.7346798,0 C28.3343075,0 27.3665444,1.3982 27.8610409,2.7064 Z M109.423117,0 L80.2057659,0 C78.8055938,0 77.8374302,1.3982 78.3319267,2.7064 L107.062392,78.7064 C107.356807,79.4848 108.103058,80 108.936031,80 L133.617193,80 C139.218282,80 143.090336,74.4074 141.11235,69.1746 L116.918274,5.1746 C115.741016,2.0608 112.756212,0 109.423117,0 Z" id="Fill-1" sketch:type="MSShapeGroup"></path>
            </g>
        </g>
    </g>
</svg>